<?xml version="1.0" encoding="UTF-8" standalone="no"?>
<!-- Created with Inkscape (http://www.inkscape.org/) -->

<svg
   xmlns:dc="http://purl.org/dc/elements/1.1/"
   xmlns:cc="http://creativecommons.org/ns#"
   xmlns:rdf="http://www.w3.org/1999/02/22-rdf-syntax-ns#"
   xmlns:svg="http://www.w3.org/2000/svg"
   xmlns="http://www.w3.org/2000/svg"
   xmlns:sodipodi="http://sodipodi.sourceforge.net/DTD/sodipodi-0.dtd"
   xmlns:inkscape="http://www.inkscape.org/namespaces/inkscape"
   id="svg2"
   version="1.1"
   inkscape:version="0.91 r13725"
   width="440"
   height="210"
   viewBox="0 0 440 210"
   sodipodi:docname="Marvel_Studios_logo.svg">
  <metadata
     id="metadata8">
    <rdf:RDF>
      <cc:Work
         rdf:about="">
        <dc:format>image/svg+xml</dc:format>
        <dc:type
           rdf:resource="http://purl.org/dc/dcmitype/StillImage" />
        <dc:title></dc:title>
      </cc:Work>
    </rdf:RDF>
  </metadata>
  <defs
     id="defs6">
    <style
       id="style2422"
       type="text/css" />
    <clipPath
       id="id3">
      <path
         id="path2428"
         d="M 0,792 612,792 612,0 0,0 0,792 Z"
         inkscape:connector-curvature="0" />
    </clipPath>
  </defs>
  <sodipodi:namedview
     pagecolor="#ffffff"
     bordercolor="#666666"
     borderopacity="1"
     objecttolerance="10"
     gridtolerance="10"
     guidetolerance="10"
     inkscape:pageopacity="0"
     inkscape:pageshadow="2"
     inkscape:window-width="1366"
     inkscape:window-height="705"
     id="namedview4"
     showgrid="false"
     inkscape:zoom="1.123347"
     inkscape:cx="337.31656"
     inkscape:cy="30.634147"
     inkscape:window-x="-8"
     inkscape:window-y="-8"
     inkscape:window-maximized="1"
     inkscape:current-layer="svg2"
     showguides="false"
     fit-margin-top="0"
     fit-margin-left="0"
     fit-margin-right="0"
     fit-margin-bottom="0" />
  <rect
     style="opacity:1;fill:#d40317;fill-opacity:1;fill-rule:nonzero;stroke:none;stroke-width:1.67617822;stroke-linecap:round;stroke-linejoin:miter;stroke-miterlimit:4;stroke-dasharray:none;stroke-opacity:1"
     id="rect4340"
     width="440"
     height="210"
     x="0"
     y="-4.6629367e-015" />
  <g
     inkscape:groupmode="layer"
     id="layer2"
     inkscape:label="Frame"
     style="display:inline">
    <path
       style="fill:none;fill-rule:evenodd;stroke:#ffffff;stroke-width:2;stroke-linecap:butt;stroke-linejoin:miter;stroke-miterlimit:4;stroke-dasharray:none;stroke-opacity:1"
       d="m 67,26 304,0 0,123 -304,0 z"
       id="path4142"
       inkscape:connector-curvature="0"
       sodipodi:nodetypes="ccccc" />
  </g>
  <g
     inkscape:groupmode="layer"
     id="layer3"
     inkscape:label="STUDIOS"
     style="display:inline">
    <path
       style="fill:none;fill-rule:evenodd;stroke:#ffffff;stroke-width:2;stroke-linecap:butt;stroke-linejoin:miter;stroke-miterlimit:4;stroke-dasharray:none;stroke-opacity:1"
       d="m 132.30592,178.097 0,-9.8478 -5.53592,0 10.76583,0"
       id="path4145"
       inkscape:connector-curvature="0"
       sodipodi:nodetypes="cccc" />
    <path
       style="display:inline;fill:none;fill-rule:evenodd;stroke:#ffffff;stroke-width:2;stroke-linecap:butt;stroke-linejoin:miter;stroke-miterlimit:4;stroke-dasharray:none;stroke-opacity:1"
       d="m 179.68642,166.86834 c 0,11.57129 1.13152,10.61357 -5.15285,10.61357 -5.88088,-0.004 -4.695,0.91247 -4.695,-10.59863"
       id="path4145-2"
       inkscape:connector-curvature="0"
       sodipodi:nodetypes="ccc" />
    <path
       style="fill:none;fill-rule:evenodd;stroke:#ffffff;stroke-width:2;stroke-linecap:butt;stroke-linejoin:miter;stroke-miterlimit:4;stroke-dasharray:none;stroke-opacity:1"
       d="m 215.53893,168.383 7.46107,0 c 0,0 2.35166,-0.18074 2.44237,4.474 0.0839,4.3077 -2.44237,4.206 -2.44237,4.206 l -7.46107,0 z"
       id="path4177"
       inkscape:connector-curvature="0"
       sodipodi:nodetypes="ccsccc" />
    <path
       style="display:inline;fill:none;fill-rule:evenodd;stroke:#ffffff;stroke-width:2.05990052;stroke-linecap:butt;stroke-linejoin:miter;stroke-miterlimit:4;stroke-dasharray:none;stroke-opacity:1"
       d="m 260.64106,167.79622 0.15675,10.41783 z"
       id="path4177-1"
       inkscape:connector-curvature="0"
       sodipodi:nodetypes="ccc" />
    <path
       style="display:inline;fill:none;fill-rule:evenodd;stroke:#ffffff;stroke-width:2.01553535;stroke-linecap:butt;stroke-linejoin:miter;stroke-miterlimit:4;stroke-dasharray:none;stroke-opacity:1"
       d="m 296.80571,173.39956 c 0.057,-5.38721 -0.75,-4.51111 5.05361,-4.55553 6.11613,-0.0468 5.38532,-0.67048 5.41914,4.58036 0.031,4.81673 0.86119,4.01779 -5.41914,4.08426 -5.95756,0.0631 -5.10286,0.549 -5.05361,-4.10909 z"
       id="path4177-0"
       inkscape:connector-curvature="0"
       sodipodi:nodetypes="sssss" />
    <path
       style="fill:none;fill-rule:evenodd;stroke:#ffffff;stroke-width:2;stroke-linecap:square;stroke-linejoin:miter;stroke-miterlimit:4;stroke-dasharray:none;stroke-opacity:1"
       d="m 342.726,176.33943 0,0.50057 c -0.0443,0.84943 -0.0252,0.8583 0.91777,0.83474 l 7.42759,0.0556 c 0.95304,0.006 1.02492,0.26047 1.02925,-0.89016 l -0.004,-2.47846 c -0.0136,-1.22703 0.21214,-1.23182 -1.41948,-1.22172 0,0 -6.50332,-0.008 -7.36737,0 -0.64394,-0.0993 -0.45864,-0.23587 -0.50076,-0.97339 l 0,-2.42022 c -0.0311,-0.65204 0.006,-0.52967 0.80672,-0.55636 l 7.48322,2e-5 c 1.02783,-0.0155 1.03517,0.0158 1.00152,0.80674 l 0,0.19474"
       id="path4268"
       inkscape:connector-curvature="0"
       sodipodi:nodetypes="cccccccccccccc" />
    <path
       style="fill:none;fill-rule:evenodd;stroke:#ffffff;stroke-width:2;stroke-linecap:square;stroke-linejoin:miter;stroke-miterlimit:4;stroke-dasharray:none;stroke-opacity:1"
       d="m 85.584769,175.04529 -3.7e-5,0.66764 c -0.0721,1.04416 -0.164055,0.66341 0.778897,0.63985 l 7.455408,0.0278 c 0.95304,0.006 1.02492,0.26047 1.02925,-0.89016 l -0.004,-2.47846 c -0.0136,-1.22703 0.21214,-1.26836 -1.41948,-1.25826 0,0 -6.50332,0.0283 -7.36737,0.0368 -0.64394,-0.0993 -0.45858,-0.23613 -0.5007,-0.97365 l -0.0835,-2.42022 c -0.0311,-0.65204 0.089,-0.52967 0.89016,-0.55636 l 7.39976,2e-5 c 1.02783,-0.0155 1.035493,0.0158 1.001843,0.80674 l 0,0.19474"
       id="path4268-4"
       inkscape:connector-curvature="0"
       sodipodi:nodetypes="cccccccccccccc" />
  </g>
  <g
     inkscape:groupmode="layer"
     id="layer4"
     inkscape:label="MARVEL"
     style="display:inline">
    <g
       transform="matrix(0.72718451,0,0,-0.72718449,-1.3925872,383.91011)"
       id="g2505"
       clip-path="url(#id3)">
      <path
         style="fill:#ffffff;fill-rule:nonzero;stroke:none"
         id="path2509"
         d="m 454.94191,478.96586 23.66597,0 0,-115.84279 20.06463,0 0,-29.22639 -43.7306,0 0,145.06918 z"
         inkscape:connector-curvature="0" />
      <path
         style="fill:#ffffff;fill-rule:nonzero;stroke:none"
         id="path2515"
         d="m 291.85248,409.8853 c 16.97776,1.06278 15.43432,22.84972 15.43432,22.84972 -2.57239,21.25556 -15.43432,20.19278 -15.43432,20.19278 l 0,-43.0425 z m -54.53464,-33.47751 -7.20269,44.10529 -6.17373,-44.10529 13.37642,0 z m -130.16286,-41.97972 0,144.53779 31.89763,0 11.31851,-60.57834 12.86193,60.57834 30.86867,0 0,-130.1903 20.06463,130.1903 31.38314,0 19.55015,-130.1903 0,129.65892 41.67269,0 c 0,0 14.40537,-2.65695 21.60807,-23.38113 l -3.08687,23.91251 25.2094,0 11.83299,-74.92584 12.34747,74.39446 70.99792,0 0,-27.10084 -21.09359,0 0,-29.75778 20.06463,0 0,-30.28918 -19.55016,0 0,-27.63222 20.57912,0 0,-29.22639 -45.78851,0 0,139.22391 -23.66599,-139.22391 -28.29627,0 -14.91985,92.46167 c 0,0 -2.57239,-25.50666 -16.46329,-37.19722 l 18.00673,-55.26445 -24.69494,0 -17.49224,48.35639 0,-48.35639 -49.90433,0 -2.57239,13.81611 -19.03568,0 -4.11581,-13.81611 -47.33196,0 0,53.1389 -12.34746,-53.1389 -12.86195,0 -11.31851,52.6075 0,-52.07612 -25.72388,-0.53138 z"
         inkscape:connector-curvature="0" />
    </g>
  </g>
  <text
     xml:space="preserve"
     style="font-style:normal;font-weight:normal;font-size:40px;line-height:125%;font-family:Sans;letter-spacing:0px;word-spacing:0px;fill:#000000;fill-opacity:1;stroke:none;stroke-width:1px;stroke-linecap:butt;stroke-linejoin:miter;stroke-opacity:1"
     x="338.71994"
     y="175.72742"
     id="text4261"
     sodipodi:linespacing="125%"><tspan
       sodipodi:role="line"
       id="tspan4263"
       x="338.71994"
       y="175.72742" /></text>
</svg>
